<?xml version="1.0" standalone="no"?>
<!DOCTYPE svg PUBLIC "-//W3C//DTD SVG 20010904//EN"
 "http://www.w3.org/TR/2001/REC-SVG-20010904/DTD/svg10.dtd">
<svg version="1.0" xmlns="http://www.w3.org/2000/svg"
 width="512.000000pt" height="512.000000pt" viewBox="0 0 512.000000 512.000000"
 preserveAspectRatio="xMidYMid meet">
<metadata>
Created by potrace 1.14, written by Peter Selinger 2001-2017
</metadata>
<g transform="translate(0.000000,512.000000) scale(0.100000,-0.100000)"
fill="#000000" stroke="none">
<path d="M2249 5016 c-2 -2 -25 -7 -50 -10 -138 -18 -279 -100 -325 -188 -40
-75 -50 -238 -24 -378 42 -226 168 -464 344 -649 59 -62 218 -200 252 -219 15
-9 15 -13 -2 -63 -27 -76 -27 -271 0 -349 23 -68 70 -162 106 -215 38 -56 145
-163 205 -207 100 -72 132 -62 195 64 65 132 82 287 46 426 -8 28 -12 52 -10
52 2 0 50 -21 106 -47 188 -86 326 -182 477 -328 l94 -91 -36 -50 c-61 -86
-72 -168 -36 -279 12 -36 33 -77 46 -91 23 -25 24 -25 51 -8 65 41 122 142
118 206 -1 15 1 25 6 22 16 -10 122 -191 176 -302 78 -159 142 -324 192 -498
l18 -60 -72 -17 c-197 -46 -363 -180 -445 -360 -61 -132 -85 -256 -85 -442 0
-149 10 -207 39 -232 34 -30 54 -29 129 4 205 90 390 270 499 489 26 51 57 74
100 74 35 0 65 -27 93 -83 116 -230 333 -430 537 -497 50 -16 90 0 108 43 14
34 19 307 7 387 -47 316 -209 521 -476 604 -46 14 -96 26 -111 26 -28 0 -29 1
-21 38 41 186 45 520 10 757 -15 103 -51 286 -61 313 -8 21 -7 23 8 18 48 -19
124 -28 189 -23 82 6 114 19 114 47 0 21 -57 100 -98 136 -62 54 -168 96 -271
106 -17 2 -27 13 -38 43 -64 172 -61 166 -139 340 -60 133 -187 362 -261 470
l-41 61 72 -19 c53 -15 107 -20 211 -21 148 -1 198 4 286 30 64 19 75 27 83
60 17 68 -176 305 -330 407 -115 76 -270 138 -388 155 -103 14 -315 6 -400
-17 -88 -23 -74 -26 -161 38 -186 137 -454 259 -675 307 -67 15 -350 30 -361
20z"/>
<path d="M53 4428 c-40 -19 -48 -61 -48 -238 0 -99 6 -193 14 -235 61 -306
231 -498 506 -570 32 -8 67 -15 77 -15 16 0 23 -11 19 -33 -1 -4 -4 -24 -7
-44 -3 -19 -7 -45 -10 -57 -17 -87 -22 -345 -10 -496 9 -110 32 -267 56 -382
27 -124 29 -119 -27 -101 -55 17 -205 13 -241 -6 -28 -15 -28 -32 2 -80 61
-96 190 -175 309 -189 l59 -7 47 -125 c93 -248 210 -480 346 -691 l63 -96 -47
14 c-70 21 -95 24 -227 29 -174 6 -341 -27 -371 -73 -21 -32 -12 -59 53 -155
151 -225 394 -381 664 -426 91 -15 290 -6 383 16 l89 22 56 -40 c64 -45 67
-47 142 -96 74 -48 278 -146 370 -177 162 -56 245 -70 410 -71 163 -1 213 4
286 29 116 39 202 103 237 177 38 80 44 269 13 403 -68 288 -234 540 -504 765
l-53 44 7 61 c4 33 7 84 6 114 -3 58 -27 178 -41 195 -4 6 -13 26 -19 44 -32
96 -175 262 -290 339 -94 63 -121 52 -181 -72 -52 -108 -62 -150 -63 -272 l-1
-91 -76 34 c-176 80 -298 158 -430 273 -63 54 -153 146 -159 160 -1 4 6 16 17
28 35 37 63 105 68 164 7 68 -23 177 -61 224 l-23 29 -28 -18 c-66 -43 -108
-110 -119 -189 l-7 -49 -56 89 c-126 200 -274 544 -323 749 l-7 31 75 18 c244
57 430 246 492 500 34 139 44 314 26 460 -8 65 -43 100 -93 92 -40 -7 -157
-65 -234 -118 -120 -81 -259 -246 -330 -392 -28 -57 -66 -82 -114 -73 -39 8
-51 21 -99 111 -107 198 -255 342 -449 434 -88 43 -108 47 -144 29z"/>
</g>
</svg>
